<?xml version="1.0" encoding="UTF-8" standalone="no"?>
<!-- Generator: Adobe Illustrator 19.0.0, SVG Export Plug-In . SVG Version: 6.00 Build 0)  -->

<svg
   xmlns:dc="http://purl.org/dc/elements/1.1/"
   xmlns:cc="http://creativecommons.org/ns#"
   xmlns:rdf="http://www.w3.org/1999/02/22-rdf-syntax-ns#"
   xmlns:svg="http://www.w3.org/2000/svg"
   xmlns="http://www.w3.org/2000/svg"
   xmlns:sodipodi="http://sodipodi.sourceforge.net/DTD/sodipodi-0.dtd"
   xmlns:inkscape="http://www.inkscape.org/namespaces/inkscape"
   version="1.1"
   id="Layer_1"
   x="0px"
   y="0px"
   viewBox="0 0 512 512"
   style="enable-background:new 0 0 512 512;"
   xml:space="preserve"
   inkscape:version="0.91 r13725"
   sodipodi:docname="card-icon.svg"><metadata
     id="metadata51"><rdf:RDF><cc:Work
         rdf:about=""><dc:format>image/svg+xml</dc:format><dc:type
           rdf:resource="http://purl.org/dc/dcmitype/StillImage" /><dc:title></dc:title></cc:Work></rdf:RDF></metadata><defs
     id="defs49" /><sodipodi:namedview
     pagecolor="#ffffff"
     bordercolor="#666666"
     borderopacity="1"
     objecttolerance="10"
     gridtolerance="10"
     guidetolerance="10"
     inkscape:pageopacity="0"
     inkscape:pageshadow="2"
     inkscape:window-width="1920"
     inkscape:window-height="1017"
     id="namedview47"
     showgrid="false"
     inkscape:zoom="0.65186406"
     inkscape:cx="-15.333928"
     inkscape:cy="329.27764"
     inkscape:window-x="1912"
     inkscape:window-y="-8"
     inkscape:window-maximized="1"
     inkscape:current-layer="Layer_1" /><path
     style="fill:#314E55;"
     d="M406.897,0H105.103C84.96,0,68.571,16.402,68.571,36.567v438.866  c0,20.165,16.388,36.567,36.531,36.567h301.795c20.143,0,36.531-16.402,36.531-36.567V36.567C443.429,16.402,427.04,0,406.897,0z"
     id="path3" /><path
     style="fill:#EAEAEA;"
     d="M425.143,475.433c0,10.08-8.183,18.281-18.246,18.281H105.103c-10.062,0-18.245-8.201-18.245-18.281  V36.567c0-10.08,8.183-18.281,18.245-18.281h301.795c10.062,0,18.245,8.201,18.245,18.281V475.433z"
     id="path5" /><g
     id="g7"><path
       style="fill:#314E55;"
       d="M169.143,100.571c1.313,0,2.547-0.299,3.675-0.797l8.575,15.81c2.411,4.442,7.96,6.089,12.393,3.679   c4.442-2.406,6.089-7.955,3.679-12.393l-36.67-67.625c-1.594-2.947-4.679-4.781-8.027-4.786c-0.005,0-0.009,0-0.009,0   c-3.348,0-6.429,1.83-8.031,4.772l-37.138,68.214c-2.415,4.433-0.777,9.987,3.661,12.402c1.388,0.755,2.884,1.112,4.362,1.112   c3.241,0,6.379-1.723,8.04-4.772l8.543-15.692c0.132,0.005,0.243,0.076,0.376,0.076H169.143z M152.741,62.755l10.593,19.531   h-21.225L152.741,62.755z"
       id="path9" /><path
       style="fill:#314E55;"
       d="M400.75,392.152c-4.442-2.42-9.991-0.786-12.402,3.661l-13.479,24.759h-31.161l-13.101-24.156   c-2.411-4.433-7.955-6.103-12.393-3.679c-4.442,2.406-6.089,7.955-3.679,12.393l36.67,67.625c1.594,2.947,4.679,4.781,8.027,4.786   c0.005,0,0.009,0,0.009,0c3.348,0,6.429-1.83,8.031-4.772l37.138-68.214C406.826,400.12,405.187,394.567,400.75,392.152z    M353.625,438.857h11.29l-5.656,10.388L353.625,438.857z"
       id="path11" /><path
       style="fill:#900000;fill-opacity:0"
       d="m -221.40154,-5.0580974 c 23.317,-40.3929996 19.12,-70.1249996 -12.478,-88.3709996 -18.621,-10.750003 -43.058,-8.290003 -65.058,6.21 -21.987,-14.487003 -46.429,-16.955003 -65.058,-6.21 -31.598,18.25 -35.795,47.982 -12.478,88.3709996 18.053,31.2720004 70.442,64.4730004 72.665,65.8710004 1.487,0.938 3.179,1.406 4.871,1.406 1.692,0 3.384,-0.469 4.871,-1.406 2.219,-1.397 54.616,-34.598 72.665,-65.8710004 z"
       id="path13"
       inkscape:connector-curvature="0" /></g><g
     id="g17" /><g
     id="g19" /><g
     id="g21" /><g
     id="g23" /><g
     id="g25" /><g
     id="g27" /><g
     id="g29" /><g
     id="g31" /><g
     id="g33" /><g
     id="g35" /><g
     id="g37" /><g
     id="g39" /><g
     id="g41" /><g
     id="g43" /><g
     id="g45" /><path
     style="fill:#000000;fill-opacity:1;stroke:none;stroke-opacity:0"
     d="M 95.200178,510.29192 C 81.778158,506.02914 71.805429,494.8249 69.532634,481.45476 68.923813,477.87326 68.746513,413.49631 68.903117,252.8795 L 69.121121,29.289937 70.87084,24.68775 C 74.610792,14.850766 82.653318,6.5903394 92.266877,2.712019 L 96.73424,0.90978676 253.5921,0.67568213 c 118.06054,-0.1762011 157.9013,-0.0110634 161.07652,0.66765337 9.56897,2.0454059 19.82039,9.7919775 24.07864,18.1952285 4.60861,9.094661 4.30151,-7.783317 4.30151,236.409056 0,195.77089 -0.14262,224.19836 -1.14415,228.04348 -3.23674,12.4267 -12.41667,22.24558 -24.23764,25.92469 -4.52087,1.40705 -9.66452,1.45156 -162.03388,1.40187 -125.00319,-0.0408 -157.995749,-0.25169 -160.432922,-1.02574 z M 416.62614,491.02237 c 2.32718,-1.4388 4.63723,-3.74887 6.07603,-6.0761 l 2.32137,-3.75472 0,-225.24393 0,-225.243922 -2.32137,-3.754728 c -1.4388,-2.327221 -3.74885,-4.637288 -6.07602,-6.076098 l -3.75466,-2.32137 -155.38402,-0.225259 c -111.55131,-0.161715 -156.20887,0.01328 -158.308064,0.62035 -3.631119,1.050086 -8.538457,5.399254 -10.746296,9.523991 l -1.670274,3.120446 0,224.35659 0,224.3566 1.648709,3.07818 c 2.193511,4.09533 5.348642,7.18693 9.089726,8.90671 2.950659,1.35643 9.046359,1.40362 159.219169,1.23253 l 156.15105,-0.1779 3.75465,-2.32137 z"
     id="path4179"
     inkscape:connector-curvature="0" /><path
     style="fill:#000000;fill-opacity:1;stroke:none;stroke-opacity:0"
     d="m 113.99244,120.43092 c -4.62215,-1.44612 -6.90328,-4.35132 -6.90328,-8.7919 0,-1.79132 5.28805,-12.229303 18.96309,-37.43085 10.42969,-19.220756 19.89515,-35.89603 21.03435,-37.056164 2.95804,-3.01241 8.32221,-3.01241 11.28548,0 1.14121,1.160134 10.50815,17.641715 20.81542,36.625734 20.86428,38.42798 20.95924,38.67628 16.55115,43.27734 -2.95934,3.08889 -6.47564,3.72918 -10.1131,1.84151 -2.282,-1.18426 -3.68298,-3.07278 -7.6007,-10.24583 -2.64167,-4.83668 -5.186,-8.759447 -5.65406,-8.71726 -0.46806,0.04219 -9.76783,0.12848 -20.66615,0.19176 l -19.81514,0.11505 -4.65469,8.6291 c -2.56009,4.74601 -5.46514,9.19923 -6.45568,9.89605 -2.05675,1.44688 -5.09906,2.19347 -6.78669,1.66546 z m 49.62023,-38.407596 c -0.18003,-0.3164 -2.64079,-4.803532 -5.46836,-9.971404 -2.82757,-5.167872 -5.26513,-9.396131 -5.4168,-9.396131 -0.15167,0 -2.58924,4.228259 -5.4168,9.396131 -2.82757,5.167872 -5.28833,9.655004 -5.46836,9.971404 -0.18003,0.3164 4.71829,0.575273 10.88516,0.575273 6.16687,0 11.06519,-0.258873 10.88516,-0.575273 z"
     id="path4181"
     inkscape:connector-curvature="0" /><path
     style="fill:#000000;fill-opacity:1;stroke:none;stroke-opacity:0"
     d="m 245.7385,329.84311 c -27.03006,-18.3873 -48.80429,-37.61867 -60.63123,-53.55055 -5.55745,-7.48636 -14.35273,-25.20054 -17.147,-34.53501 -1.79488,-5.99596 -2.07482,-8.31468 -2.12986,-17.64172 -0.0586,-9.92602 0.0975,-11.17365 2.06296,-16.49117 4.05424,-10.96859 13.66677,-21.22325 25.80208,-27.52568 8.35543,-4.33935 14.18198,-5.71176 24.2297,-5.70715 11.0714,0.005 18.73869,1.97923 30.50141,7.85342 l 9.02454,4.50676 5.74848,-3.27591 c 7.27771,-4.14738 17.99886,-7.71211 26.63474,-8.85592 17.05627,-2.25907 33.7573,3.95526 46.7431,17.39276 13.81285,14.29331 16.14735,34.42523 6.75281,58.23402 -3.47802,8.81443 -9.4745,19.80125 -14.41455,26.4105 -11.85945,15.86665 -36.01559,37.03985 -61.39846,53.81661 -10.4732,6.92224 -10.6842,6.91612 -21.77872,-0.63096 z m 21.01748,-20.27845 c 21.35619,-15.25343 40.85701,-33.05729 48.71008,-44.47134 4.63296,-6.73378 10.00626,-17.23553 12.76678,-24.95181 3.5906,-10.03651 4.08628,-20.29242 1.32767,-27.47034 -2.6269,-6.83526 -12.42796,-15.49933 -21.40695,-18.92361 -5.18094,-1.97584 -15.15065,-2.33289 -21.57913,-0.77282 -5.73403,1.39153 -15.86163,6.17102 -21.58851,10.1882 -6.56067,4.60204 -9.18842,4.52549 -16.37953,-0.47717 -12.01969,-8.36179 -25.86685,-12.30618 -36.50585,-10.39876 -10.54306,1.89021 -22.25996,10.27772 -26.5195,18.9839 -3.17333,6.48605 -3.41806,15.3243 -0.68843,24.86174 2.26395,7.91031 7.83195,19.80707 12.86385,27.48528 4.42323,6.74946 19.6017,22.21292 30.71703,31.29378 10.44145,8.53032 27.3752,20.83652 28.6946,20.85312 0.49026,0.006 4.80481,-2.78391 9.58789,-6.20017 z"
     id="path4183"
     inkscape:connector-curvature="0" /><path
     style="fill:#910900;fill-opacity:0;stroke:none;stroke-opacity:0"
     d="m 353.78373,475.12676 c -1.74843,-1.58062 -33.07902,-58.42186 -38.1981,-69.30056 -2.03205,-4.31838 -2.12623,-4.90267 -1.22445,-7.59705 1.81847,-5.4333 8.35095,-7.87958 12.96618,-4.85557 1.116,0.73124 4.828,6.64584 9.01508,14.3644 l 7.1179,13.12133 15.85309,-0.002 15.85309,-0.002 6.85796,-12.70899 c 3.77188,-6.98995 7.85404,-13.54714 9.07147,-14.57154 2.82846,-2.38 7.47344,-2.50719 10.58732,-0.28991 2.62272,1.86754 4.16008,6.53477 3.08443,9.36393 -2.0602,5.41875 -38.05563,70.27593 -40.01213,72.09455 -2.98795,2.77737 -8.1252,2.95694 -10.97184,0.38352 z m 8.53502,-30.71441 c 1.37107,-2.65179 2.49285,-5.06666 2.49285,-5.36638 0,-0.29972 -2.61749,-0.54495 -5.81665,-0.54495 -3.19916,0 -5.69912,0.25887 -5.55546,0.57527 1.67656,3.69271 5.38397,10.16253 5.82218,10.16033 0.31033,-0.002 1.68602,-2.17248 3.05708,-4.82427 z"
     id="path4185"
     inkscape:connector-curvature="0" /><path
     style="fill:#910900;fill-opacity:0;stroke:none;stroke-opacity:0"
     d="m 246.94723,308.39959 c -14.37844,-10.46706 -22.97141,-17.57947 -32.74389,-27.10215 -10.97506,-10.69451 -16.98531,-18.47735 -22.02596,-28.52202 -11.78058,-23.47554 -11.53181,-38.59861 0.82255,-50.00566 15.28257,-14.11072 34.53428,-13.77802 56.3735,0.97424 6.05237,4.08834 9.37303,4.19826 14.7657,0.48876 6.47761,-4.45581 15.88149,-8.84886 22.55417,-10.53624 9.40262,-2.37772 16.62472,-1.69442 24.80964,2.34729 7.57878,3.74239 14.34543,10.09859 17.1662,16.12492 2.70327,5.7753 2.78661,16.03542 0.19983,24.60312 -2.37893,7.87931 -10.00741,23.03206 -14.86689,29.53069 -6.96,9.3077 -21.39972,22.95895 -37.42976,35.38598 -7.68651,5.95883 -18.50973,13.3205 -19.58397,13.3205 -0.52902,0 -5.04752,-2.97424 -10.04112,-6.60943 z"
     id="path4187"
     inkscape:connector-curvature="0" /><path
     style="fill:#910900;fill-opacity:0;stroke:none;stroke-opacity:0"
     d="m 246.94723,308.39959 c -14.37844,-10.46706 -22.97141,-17.57947 -32.74389,-27.10215 -10.97506,-10.69451 -16.98531,-18.47735 -22.02596,-28.52202 -11.78058,-23.47554 -11.53181,-38.59861 0.82255,-50.00566 15.28257,-14.11072 34.53428,-13.77802 56.3735,0.97424 6.05237,4.08834 9.37303,4.19826 14.7657,0.48876 6.47761,-4.45581 15.88149,-8.84886 22.55417,-10.53624 9.40262,-2.37772 16.62472,-1.69442 24.80964,2.34729 7.57878,3.74239 14.34543,10.09859 17.1662,16.12492 2.70327,5.7753 2.78661,16.03542 0.19983,24.60312 -2.37893,7.87931 -10.00741,23.03206 -14.86689,29.53069 -6.96,9.3077 -21.39972,22.95895 -37.42976,35.38598 -7.68651,5.95883 -18.50973,13.3205 -19.58397,13.3205 -0.52902,0 -5.04752,-2.97424 -10.04112,-6.60943 z"
     id="path4189"
     inkscape:connector-curvature="0" /><path
     style="fill:#910900;fill-opacity:1;stroke:none;stroke-opacity:0"
     d="m 246.95121,310.10256 c -15.50089,-10.98992 -24.64353,-18.55537 -36.31166,-30.04756 -12.63283,-12.44237 -16.22373,-17.23362 -22.36172,-29.83673 -7.97048,-16.36575 -9.90941,-29.47067 -5.69913,-38.51967 5.36226,-11.52493 20.34717,-20.9742 33.19975,-20.9353 9.86155,0.0298 20.93786,3.89942 33.61952,11.74516 6.22175,3.8492 9.47867,4.10959 13.95625,1.11579 5.87461,-3.92791 13.69071,-7.96083 19.65751,-10.14284 7.78404,-2.84654 20.36567,-3.24136 26.76717,-0.83998 9.43415,3.53904 18.33114,11.07354 21.90404,18.54965 1.81596,3.7998 2.05738,5.27753 1.99084,12.18624 -0.0917,9.51275 -2.14436,16.40366 -8.62509,28.95385 -5.75364,11.14217 -10.44669,17.44449 -20.04095,26.91315 -13.73738,13.55753 -44.26588,37.29876 -47.96192,37.29876 -0.55577,0 -5.09835,-2.89823 -10.09461,-6.44052 z"
     id="path4193"
     inkscape:connector-curvature="0" /><path
     style="fill:#910900;fill-opacity:0;stroke:none;stroke-opacity:0"
     d="m -386.11337,149.55626 c -13.21256,-9.42381 -26.58546,-20.80202 -36.51771,-31.07079 -9.54245,-9.86576 -13.08753,-14.70997 -18.1234,-24.764929 -11.46725,-22.89629 -11.48912,-37.82514 -0.0715,-48.82626 15.49318,-14.928066 33.67412,-15.089426 56.76879,-0.50382 8.00039,5.0527 8.93327,4.9614 20.33514,-1.99006 3.24422,-1.97792 8.76684,-4.67111 12.2725,-5.984856 5.57272,-2.08839 7.3863,-2.39711 14.42776,-2.45603 6.19245,-0.0518 8.9402,0.27053 11.88898,1.39473 9.05646,3.452706 17.59725,10.803416 21.02711,18.097166 1.73686,3.69349 1.97732,5.17354 1.93165,11.88898 -0.0446,6.55143 -0.4144,8.73325 -2.53528,14.95711 -2.53131,7.42829 -8.33659,19.06665 -12.60539,25.271149 -6.89196,10.0171 -22.88551,25.21457 -40.97938,38.93959 -11.56657,8.77378 -15.92927,11.72534 -17.33124,11.72534 -0.61938,0 -5.33897,-3.00479 -10.48799,-6.67732 z"
     id="path4195"
     inkscape:connector-curvature="0" /><path
     style="fill:#910900;fill-opacity:0;stroke:none;stroke-opacity:0"
     d="m 250.33283,310.9821 c -13.36861,-9.21597 -25.45198,-19.27594 -37.06017,-30.85433 -13.12786,-13.09415 -15.69544,-16.46498 -21.6763,-28.4575 -8.78631,-17.61786 -10.46828,-30.48746 -5.32932,-40.77722 2.44013,-4.88589 10.22589,-11.8424 17.00252,-15.19159 4.93692,-2.43995 6.69041,-2.89177 12.51081,-3.22364 10.42856,-0.59461 18.79688,2.09137 33.38098,10.71428 7.06307,4.17608 8.82344,4.09545 17.29204,-0.79207 16.93835,-9.7757 28.44454,-12.23344 40.23017,-8.59323 5.70009,1.76057 14.64172,7.72887 18.03077,12.03507 5.05734,6.42592 5.94837,9.11251 5.93349,17.89045 -0.0115,6.78793 -0.35656,9.07859 -2.19527,14.57359 -4.69442,14.0293 -12.48848,26.93814 -23.03107,38.14498 -11.77904,12.52118 -44.32854,38.55813 -48.20258,38.55813 -0.57456,0 -3.67329,-1.81211 -6.88607,-4.02692 z"
     id="path4201"
     inkscape:connector-curvature="0" /><path
     style="fill:#910900;fill-opacity:0;stroke:none;stroke-opacity:0"
     d="m 250.33283,310.9821 c -13.36861,-9.21597 -25.45198,-19.27594 -37.06017,-30.85433 -13.12786,-13.09415 -15.69544,-16.46498 -21.6763,-28.4575 -8.78631,-17.61786 -10.46828,-30.48746 -5.32932,-40.77722 2.44013,-4.88589 10.22589,-11.8424 17.00252,-15.19159 4.93692,-2.43995 6.69041,-2.89177 12.51081,-3.22364 10.42856,-0.59461 18.79688,2.09137 33.38098,10.71428 7.06307,4.17608 8.82344,4.09545 17.29204,-0.79207 16.93835,-9.7757 28.44454,-12.23344 40.23017,-8.59323 5.70009,1.76057 14.64172,7.72887 18.03077,12.03507 5.05734,6.42592 5.94837,9.11251 5.93349,17.89045 -0.0115,6.78793 -0.35656,9.07859 -2.19527,14.57359 -4.69442,14.0293 -12.48848,26.93814 -23.03107,38.14498 -11.77904,12.52118 -44.32854,38.55813 -48.20258,38.55813 -0.57456,0 -3.67329,-1.81211 -6.88607,-4.02692 z"
     id="path4203"
     inkscape:connector-curvature="0" /><path
     style="fill:#910900;fill-opacity:0;stroke:none;stroke-opacity:0"
     d="m 250.33283,310.9821 c -13.36861,-9.21597 -25.45198,-19.27594 -37.06017,-30.85433 -13.12786,-13.09415 -15.69544,-16.46498 -21.6763,-28.4575 -8.78631,-17.61786 -10.46828,-30.48746 -5.32932,-40.77722 2.44013,-4.88589 10.22589,-11.8424 17.00252,-15.19159 4.93692,-2.43995 6.69041,-2.89177 12.51081,-3.22364 10.42856,-0.59461 18.79688,2.09137 33.38098,10.71428 7.06307,4.17608 8.82344,4.09545 17.29204,-0.79207 16.93835,-9.7757 28.44454,-12.23344 40.23017,-8.59323 5.70009,1.76057 14.64172,7.72887 18.03077,12.03507 5.05734,6.42592 5.94837,9.11251 5.93349,17.89045 -0.0115,6.78793 -0.35656,9.07859 -2.19527,14.57359 -4.69442,14.0293 -12.48848,26.93814 -23.03107,38.14498 -11.77904,12.52118 -44.32854,38.55813 -48.20258,38.55813 -0.57456,0 -3.67329,-1.81211 -6.88607,-4.02692 z"
     id="path4205"
     inkscape:connector-curvature="0" /><path
     style="fill:#920900;fill-opacity:0;stroke:none;stroke-opacity:0"
     d="m 250.33283,310.9821 c -13.36861,-9.21597 -25.45198,-19.27594 -37.06017,-30.85433 -13.12786,-13.09415 -15.69544,-16.46498 -21.6763,-28.4575 -8.78631,-17.61786 -10.46828,-30.48746 -5.32932,-40.77722 2.44013,-4.88589 10.22589,-11.8424 17.00252,-15.19159 4.93692,-2.43995 6.69041,-2.89177 12.51081,-3.22364 10.42856,-0.59461 18.79688,2.09137 33.38098,10.71428 7.06307,4.17608 8.82344,4.09545 17.29204,-0.79207 16.93835,-9.7757 28.44454,-12.23344 40.23017,-8.59323 5.70009,1.76057 14.64172,7.72887 18.03077,12.03507 5.05734,6.42592 5.94837,9.11251 5.93349,17.89045 -0.0115,6.78793 -0.35656,9.07859 -2.19527,14.57359 -4.69442,14.0293 -12.48848,26.93814 -23.03107,38.14498 -11.77904,12.52118 -44.32854,38.55813 -48.20258,38.55813 -0.57456,0 -3.67329,-1.81211 -6.88607,-4.02692 z"
     id="path4207"
     inkscape:connector-curvature="0" /><path
     style="fill:#920900;fill-opacity:0;stroke:none;stroke-opacity:0"
     d="m 250.33283,310.9821 c -13.36861,-9.21597 -25.45198,-19.27594 -37.06017,-30.85433 -13.12786,-13.09415 -15.69544,-16.46498 -21.6763,-28.4575 -8.78631,-17.61786 -10.46828,-30.48746 -5.32932,-40.77722 2.44013,-4.88589 10.22589,-11.8424 17.00252,-15.19159 4.93692,-2.43995 6.69041,-2.89177 12.51081,-3.22364 10.42856,-0.59461 18.79688,2.09137 33.38098,10.71428 7.06307,4.17608 8.82344,4.09545 17.29204,-0.79207 16.93835,-9.7757 28.44454,-12.23344 40.23017,-8.59323 5.70009,1.76057 14.64172,7.72887 18.03077,12.03507 5.05734,6.42592 5.94837,9.11251 5.93349,17.89045 -0.0115,6.78793 -0.35656,9.07859 -2.19527,14.57359 -4.69442,14.0293 -12.48848,26.93814 -23.03107,38.14498 -11.77904,12.52118 -44.32854,38.55813 -48.20258,38.55813 -0.57456,0 -3.67329,-1.81211 -6.88607,-4.02692 z"
     id="path4209"
     inkscape:connector-curvature="0" /><path
     style="fill:#920900;fill-opacity:0;stroke:none;stroke-opacity:0"
     d="m 250.33283,310.9821 c -13.36861,-9.21597 -25.45198,-19.27594 -37.06017,-30.85433 -13.12786,-13.09415 -15.69544,-16.46498 -21.6763,-28.4575 -8.78631,-17.61786 -10.46828,-30.48746 -5.32932,-40.77722 2.44013,-4.88589 10.22589,-11.8424 17.00252,-15.19159 4.93692,-2.43995 6.69041,-2.89177 12.51081,-3.22364 10.42856,-0.59461 18.79688,2.09137 33.38098,10.71428 7.06307,4.17608 8.82344,4.09545 17.29204,-0.79207 16.93835,-9.7757 28.44454,-12.23344 40.23017,-8.59323 5.70009,1.76057 14.64172,7.72887 18.03077,12.03507 5.05734,6.42592 5.94837,9.11251 5.93349,17.89045 -0.0115,6.78793 -0.35656,9.07859 -2.19527,14.57359 -4.69442,14.0293 -12.48848,26.93814 -23.03107,38.14498 -11.77904,12.52118 -44.32854,38.55813 -48.20258,38.55813 -0.57456,0 -3.67329,-1.81211 -6.88607,-4.02692 z"
     id="path4211"
     inkscape:connector-curvature="0" /><path
     style="fill:#920900;fill-opacity:0;stroke:none;stroke-opacity:0"
     d="m 250.33283,310.9821 c -13.36861,-9.21597 -25.45198,-19.27594 -37.06017,-30.85433 -13.12786,-13.09415 -15.69544,-16.46498 -21.6763,-28.4575 -8.78631,-17.61786 -10.46828,-30.48746 -5.32932,-40.77722 2.44013,-4.88589 10.22589,-11.8424 17.00252,-15.19159 4.93692,-2.43995 6.69041,-2.89177 12.51081,-3.22364 10.42856,-0.59461 18.79688,2.09137 33.38098,10.71428 7.06307,4.17608 8.82344,4.09545 17.29204,-0.79207 16.93835,-9.7757 28.44454,-12.23344 40.23017,-8.59323 5.70009,1.76057 14.64172,7.72887 18.03077,12.03507 5.05734,6.42592 5.94837,9.11251 5.93349,17.89045 -0.0115,6.78793 -0.35656,9.07859 -2.19527,14.57359 -4.69442,14.0293 -12.48848,26.93814 -23.03107,38.14498 -11.77904,12.52118 -44.32854,38.55813 -48.20258,38.55813 -0.57456,0 -3.67329,-1.81211 -6.88607,-4.02692 z"
     id="path4213"
     inkscape:connector-curvature="0" /><path
     style="fill:#920900;fill-opacity:0;stroke:none;stroke-opacity:0"
     d="m 250.33283,310.9821 c -13.36861,-9.21597 -25.45198,-19.27594 -37.06017,-30.85433 -13.12786,-13.09415 -15.69544,-16.46498 -21.6763,-28.4575 -8.78631,-17.61786 -10.46828,-30.48746 -5.32932,-40.77722 2.44013,-4.88589 10.22589,-11.8424 17.00252,-15.19159 4.93692,-2.43995 6.69041,-2.89177 12.51081,-3.22364 10.42856,-0.59461 18.79688,2.09137 33.38098,10.71428 7.06307,4.17608 8.82344,4.09545 17.29204,-0.79207 16.93835,-9.7757 28.44454,-12.23344 40.23017,-8.59323 5.70009,1.76057 14.64172,7.72887 18.03077,12.03507 5.05734,6.42592 5.94837,9.11251 5.93349,17.89045 -0.0115,6.78793 -0.35656,9.07859 -2.19527,14.57359 -4.69442,14.0293 -12.48848,26.93814 -23.03107,38.14498 -11.77904,12.52118 -44.32854,38.55813 -48.20258,38.55813 -0.57456,0 -3.67329,-1.81211 -6.88607,-4.02692 z"
     id="path4215"
     inkscape:connector-curvature="0" /><path
     style="fill:#920900;fill-opacity:0;stroke:none;stroke-opacity:0"
     d="m 250.33283,310.9821 c -13.36861,-9.21597 -25.45198,-19.27594 -37.06017,-30.85433 -13.12786,-13.09415 -15.69544,-16.46498 -21.6763,-28.4575 -8.78631,-17.61786 -10.46828,-30.48746 -5.32932,-40.77722 2.44013,-4.88589 10.22589,-11.8424 17.00252,-15.19159 4.93692,-2.43995 6.69041,-2.89177 12.51081,-3.22364 10.42856,-0.59461 18.79688,2.09137 33.38098,10.71428 7.06307,4.17608 8.82344,4.09545 17.29204,-0.79207 16.93835,-9.7757 28.44454,-12.23344 40.23017,-8.59323 5.70009,1.76057 14.64172,7.72887 18.03077,12.03507 5.05734,6.42592 5.94837,9.11251 5.93349,17.89045 -0.0115,6.78793 -0.35656,9.07859 -2.19527,14.57359 -4.69442,14.0293 -12.48848,26.93814 -23.03107,38.14498 -11.77904,12.52118 -44.32854,38.55813 -48.20258,38.55813 -0.57456,0 -3.67329,-1.81211 -6.88607,-4.02692 z"
     id="path4217"
     inkscape:connector-curvature="0" /><path
     style="fill:#920900;fill-opacity:0;stroke:none;stroke-opacity:0"
     d="m 250.33283,310.9821 c -13.36861,-9.21597 -25.45198,-19.27594 -37.06017,-30.85433 -13.12786,-13.09415 -15.69544,-16.46498 -21.6763,-28.4575 -8.78631,-17.61786 -10.46828,-30.48746 -5.32932,-40.77722 2.44013,-4.88589 10.22589,-11.8424 17.00252,-15.19159 4.93692,-2.43995 6.69041,-2.89177 12.51081,-3.22364 10.42856,-0.59461 18.79688,2.09137 33.38098,10.71428 7.06307,4.17608 8.82344,4.09545 17.29204,-0.79207 16.93835,-9.7757 28.44454,-12.23344 40.23017,-8.59323 5.70009,1.76057 14.64172,7.72887 18.03077,12.03507 5.05734,6.42592 5.94837,9.11251 5.93349,17.89045 -0.0115,6.78793 -0.35656,9.07859 -2.19527,14.57359 -4.69442,14.0293 -12.48848,26.93814 -23.03107,38.14498 -11.77904,12.52118 -44.32854,38.55813 -48.20258,38.55813 -0.57456,0 -3.67329,-1.81211 -6.88607,-4.02692 z"
     id="path4219"
     inkscape:connector-curvature="0" /><path
     style="fill:#920900;fill-opacity:0;stroke:none;stroke-opacity:0"
     d="m 250.33283,310.9821 c -13.36861,-9.21597 -25.45198,-19.27594 -37.06017,-30.85433 -13.12786,-13.09415 -15.69544,-16.46498 -21.6763,-28.4575 -8.78631,-17.61786 -10.46828,-30.48746 -5.32932,-40.77722 2.44013,-4.88589 10.22589,-11.8424 17.00252,-15.19159 4.93692,-2.43995 6.69041,-2.89177 12.51081,-3.22364 10.42856,-0.59461 18.79688,2.09137 33.38098,10.71428 7.06307,4.17608 8.82344,4.09545 17.29204,-0.79207 16.93835,-9.7757 28.44454,-12.23344 40.23017,-8.59323 5.70009,1.76057 14.64172,7.72887 18.03077,12.03507 5.05734,6.42592 5.94837,9.11251 5.93349,17.89045 -0.0115,6.78793 -0.35656,9.07859 -2.19527,14.57359 -4.69442,14.0293 -12.48848,26.93814 -23.03107,38.14498 -11.77904,12.52118 -44.32854,38.55813 -48.20258,38.55813 -0.57456,0 -3.67329,-1.81211 -6.88607,-4.02692 z"
     id="path4221"
     inkscape:connector-curvature="0" /><path
     style="fill:#920900;fill-opacity:0;stroke:none;stroke-opacity:0"
     d="m 250.33283,310.9821 c -13.36861,-9.21597 -25.45198,-19.27594 -37.06017,-30.85433 -13.12786,-13.09415 -15.69544,-16.46498 -21.6763,-28.4575 -8.78631,-17.61786 -10.46828,-30.48746 -5.32932,-40.77722 2.44013,-4.88589 10.22589,-11.8424 17.00252,-15.19159 4.93692,-2.43995 6.69041,-2.89177 12.51081,-3.22364 10.42856,-0.59461 18.79688,2.09137 33.38098,10.71428 7.06307,4.17608 8.82344,4.09545 17.29204,-0.79207 16.93835,-9.7757 28.44454,-12.23344 40.23017,-8.59323 5.70009,1.76057 14.64172,7.72887 18.03077,12.03507 5.05734,6.42592 5.94837,9.11251 5.93349,17.89045 -0.0115,6.78793 -0.35656,9.07859 -2.19527,14.57359 -4.69442,14.0293 -12.48848,26.93814 -23.03107,38.14498 -11.77904,12.52118 -44.32854,38.55813 -48.20258,38.55813 -0.57456,0 -3.67329,-1.81211 -6.88607,-4.02692 z"
     id="path4223"
     inkscape:connector-curvature="0" /><path
     style="fill:#910900;fill-opacity:0;stroke:none;stroke-opacity:0"
     d="m 353.78373,475.12676 c -1.74843,-1.58062 -33.07902,-58.42186 -38.1981,-69.30056 -2.03205,-4.31838 -2.12623,-4.90267 -1.22445,-7.59705 1.81847,-5.4333 8.35095,-7.87958 12.96618,-4.85557 1.116,0.73124 4.828,6.64584 9.01508,14.3644 l 7.1179,13.12133 15.85309,-0.002 15.85309,-0.002 6.85796,-12.70899 c 3.77188,-6.98995 7.85404,-13.54714 9.07147,-14.57154 2.82846,-2.38 7.47344,-2.50719 10.58732,-0.28991 2.62272,1.86754 4.16008,6.53477 3.08443,9.36393 -2.0602,5.41875 -38.05563,70.27593 -40.01213,72.09455 -2.98795,2.77737 -8.1252,2.95694 -10.97184,0.38352 z m 8.53502,-30.71441 c 1.37107,-2.65179 2.49285,-5.06666 2.49285,-5.36638 0,-0.29972 -2.61749,-0.54495 -5.81665,-0.54495 -3.19916,0 -5.69912,0.25887 -5.55546,0.57527 1.67656,3.69271 5.38397,10.16253 5.82218,10.16033 0.31033,-0.002 1.68602,-2.17248 3.05708,-4.82427 z"
     id="path4236"
     inkscape:connector-curvature="0" /><path
     style="fill:#0000ff;fill-opacity:0;stroke:none;stroke-opacity:0"
     d="m 250.33283,310.9821 c -13.36861,-9.21597 -25.45198,-19.27594 -37.06017,-30.85433 -13.12786,-13.09415 -15.69544,-16.46498 -21.6763,-28.4575 -8.78631,-17.61786 -10.46828,-30.48746 -5.32932,-40.77722 2.44013,-4.88589 10.22589,-11.8424 17.00252,-15.19159 4.93692,-2.43995 6.69041,-2.89177 12.51081,-3.22364 10.42856,-0.59461 18.79688,2.09137 33.38098,10.71428 7.06307,4.17608 8.82344,4.09545 17.29204,-0.79207 16.93835,-9.7757 28.44454,-12.23344 40.23017,-8.59323 5.70009,1.76057 14.64172,7.72887 18.03077,12.03507 5.05734,6.42592 5.94837,9.11251 5.93349,17.89045 -0.0115,6.78793 -0.35656,9.07859 -2.19527,14.57359 -4.69442,14.0293 -12.48848,26.93814 -23.03107,38.14498 -11.77904,12.52118 -44.32854,38.55813 -48.20258,38.55813 -0.57456,0 -3.67329,-1.81211 -6.88607,-4.02692 z"
     id="path4238"
     inkscape:connector-curvature="0" /><path
     style="fill:#0000ff;fill-opacity:0;stroke:none;stroke-opacity:0"
     d="m 250.33283,310.9821 c -13.36861,-9.21597 -25.45198,-19.27594 -37.06017,-30.85433 -13.12786,-13.09415 -15.69544,-16.46498 -21.6763,-28.4575 -8.78631,-17.61786 -10.46828,-30.48746 -5.32932,-40.77722 2.44013,-4.88589 10.22589,-11.8424 17.00252,-15.19159 4.93692,-2.43995 6.69041,-2.89177 12.51081,-3.22364 10.42856,-0.59461 18.79688,2.09137 33.38098,10.71428 7.06307,4.17608 8.82344,4.09545 17.29204,-0.79207 16.93835,-9.7757 28.44454,-12.23344 40.23017,-8.59323 5.70009,1.76057 14.64172,7.72887 18.03077,12.03507 5.05734,6.42592 5.94837,9.11251 5.93349,17.89045 -0.0115,6.78793 -0.35656,9.07859 -2.19527,14.57359 -4.69442,14.0293 -12.48848,26.93814 -23.03107,38.14498 -11.77904,12.52118 -44.32854,38.55813 -48.20258,38.55813 -0.57456,0 -3.67329,-1.81211 -6.88607,-4.02692 z"
     id="path4240"
     inkscape:connector-curvature="0" /><path
     style="fill:#0000ff;fill-opacity:0;stroke:none;stroke-opacity:0"
     d="m 250.33283,310.9821 c -13.36861,-9.21597 -25.45198,-19.27594 -37.06017,-30.85433 -13.12786,-13.09415 -15.69544,-16.46498 -21.6763,-28.4575 -8.78631,-17.61786 -10.46828,-30.48746 -5.32932,-40.77722 2.44013,-4.88589 10.22589,-11.8424 17.00252,-15.19159 4.93692,-2.43995 6.69041,-2.89177 12.51081,-3.22364 10.42856,-0.59461 18.79688,2.09137 33.38098,10.71428 7.06307,4.17608 8.82344,4.09545 17.29204,-0.79207 16.93835,-9.7757 28.44454,-12.23344 40.23017,-8.59323 5.70009,1.76057 14.64172,7.72887 18.03077,12.03507 5.05734,6.42592 5.94837,9.11251 5.93349,17.89045 -0.0115,6.78793 -0.35656,9.07859 -2.19527,14.57359 -4.69442,14.0293 -12.48848,26.93814 -23.03107,38.14498 -11.77904,12.52118 -44.32854,38.55813 -48.20258,38.55813 -0.57456,0 -3.67329,-1.81211 -6.88607,-4.02692 z"
     id="path4242"
     inkscape:connector-curvature="0" /><path
     style="fill:#ffffff;fill-opacity:1;stroke:none;stroke-opacity:0"
     d="m 353.78373,475.12676 c -1.74843,-1.58062 -33.07902,-58.42186 -38.1981,-69.30056 -2.03205,-4.31838 -2.12623,-4.90267 -1.22445,-7.59705 1.81847,-5.4333 8.35095,-7.87958 12.96618,-4.85557 1.116,0.73124 4.828,6.64584 9.01508,14.3644 l 7.1179,13.12133 15.85309,-0.002 15.85309,-0.002 6.85796,-12.70899 c 3.77188,-6.98995 7.85404,-13.54714 9.07147,-14.57154 2.82846,-2.38 7.47344,-2.50719 10.58732,-0.28991 2.62272,1.86754 4.16008,6.53477 3.08443,9.36393 -2.0602,5.41875 -38.05563,70.27593 -40.01213,72.09455 -2.98795,2.77737 -8.1252,2.95694 -10.97184,0.38352 z m 8.53502,-30.71441 c 1.37107,-2.65179 2.49285,-5.06666 2.49285,-5.36638 0,-0.29972 -2.61749,-0.54495 -5.81665,-0.54495 -3.19916,0 -5.69912,0.25887 -5.55546,0.57527 1.67656,3.69271 5.38397,10.16253 5.82218,10.16033 0.31033,-0.002 1.68602,-2.17248 3.05708,-4.82427 z"
     id="path4248"
     inkscape:connector-curvature="0" /><path
     style="fill:#ffffff;fill-opacity:1;stroke:none;stroke-opacity:0"
     d="m 109.33728,492.23535 c -11.049097,-0.88646 -13.15823,-1.54471 -16.874688,-5.26647 l -4.247323,-4.2534 -0.404302,-224.32186 C 87.511339,92.148917 87.862978,32.96606 89.169164,29.801074 c 0.969374,-2.348867 3.487972,-5.627925 5.596885,-7.286796 3.755654,-2.954198 7.059941,-3.016129 160.922851,-3.016129 174.73163,0 162.5734,-0.744478 167.16121,10.2357 3.18311,7.618245 3.10468,444.589201 -0.0811,452.214001 -4.39911,10.52853 5.92642,9.82283 -155.07196,10.59847 -80.1528,0.38615 -151.41468,0.24621 -158.35972,-0.31097 z m 257.77348,-19.03831 c 5.68129,-7.68148 39.42241,-70.77327 39.42241,-73.71513 0,-4.12616 -5.68705,-8.74072 -10.77222,-8.74072 -4.90921,0 -7.16307,2.79542 -17.22397,21.36256 l -4.21823,7.78463 -15.15104,0 -15.15104,0 -5.81275,-11.06167 c -6.63491,-12.62626 -11.45693,-18.08552 -15.97445,-18.08552 -4.11125,0 -9.27409,5.2599 -9.27409,9.44846 0,4.26063 37.83842,74.46553 41.18912,76.42175 4.84546,2.8289 9.196,1.68328 12.96626,-3.41436 z M 274.05909,326.9068 c 27.34317,-19.5328 49.84604,-40.88503 59.65882,-56.60829 11.11612,-17.81163 15.08163,-29.86427 15.13573,-46.00306 0.0403,-12.02518 -0.48183,-14.82064 -4.04682,-21.6661 -9.60208,-18.43781 -34.18644,-31.58566 -53.87729,-28.81386 -8.77702,1.23552 -20.60057,5.00336 -27.37126,8.72248 l -5.67635,3.118 -11.19834,-5.10489 c -9.59465,-4.37382 -13.33079,-5.20222 -26.08888,-5.78452 -14.09051,-0.64312 -15.42577,-0.42917 -24.85289,3.98232 -11.48982,5.37674 -22.83211,15.97508 -27.05766,25.28296 -2.15631,4.74979 -2.94027,9.99687 -2.96505,19.84507 -0.087,34.55691 23.13424,66.70572 74.22342,102.75928 16.19202,11.42667 18.47431,11.44478 34.11657,0.27061 z m -146.72524,-216.61881 5.36922,-9.40257 19.94281,-0.0228 19.94281,-0.0228 5.03675,9.16976 c 5.45568,9.93246 9.88597,12.46798 16.51092,9.44945 7.98185,-3.63677 6.93395,-7.1245 -13.56514,-45.148924 -11.42797,-21.19813 -20.84989,-36.866516 -23.25525,-38.672845 -7.43466,-5.583119 -10.25051,-2.262951 -31.88486,37.595444 -10.74945,19.804423 -19.55113,37.454285 -19.55929,39.221915 -0.0152,3.28915 3.54757,7.30756 7.65547,8.63459 4.60846,1.48872 8.54885,-1.59396 13.80656,-10.80126 z"
     id="path4250"
     inkscape:connector-curvature="0" /><path
     style="fill:#000000;fill-opacity:1;stroke:none;stroke-opacity:0"
     d="m 353.16352,472.43 c -3.61936,-5.16799 -25.49818,-44.70993 -33.19553,-59.99484 -6.17746,-12.26678 -6.13075,-16.16143 0.22855,-19.05892 3.52393,-1.60561 4.30264,-1.30613 7.94336,3.05487 2.22004,2.65925 6.44241,9.36434 9.38306,14.90022 l 5.34663,10.06522 16.45999,0.0129 16.45999,0.0129 3.31261,-6.51977 c 1.82194,-3.58587 5.65233,-10.18795 8.51197,-14.67129 4.43719,-6.95661 5.80618,-8.08099 9.33903,-7.67031 2.54523,0.29587 4.8488,1.9111 5.98076,4.19364 2.15328,4.34194 -0.2455,9.60454 -22.78164,49.97975 -17.2901,30.97654 -20.88995,34.4039 -26.98878,25.69554 z m 9.60948,-27.92045 c 3.1886,-6.16606 3.16027,-6.21243 -3.79576,-6.21243 -6.9833,0 -7.09626,0.20253 -3.5044,6.28307 3.3011,5.58832 4.3792,5.57789 7.30016,-0.0706 z"
     id="path4252"
     inkscape:connector-curvature="0" /></svg>