<?xml version="1.0" encoding="UTF-8" standalone="no"?>
<!-- Generator: Adobe Illustrator 15.1.0, SVG Export Plug-In . SVG Version: 6.00 Build 0)  -->

<svg
   xmlns:dc="http://purl.org/dc/elements/1.1/"
   xmlns:cc="http://creativecommons.org/ns#"
   xmlns:rdf="http://www.w3.org/1999/02/22-rdf-syntax-ns#"
   xmlns:svg="http://www.w3.org/2000/svg"
   xmlns="http://www.w3.org/2000/svg"
   xmlns:sodipodi="http://sodipodi.sourceforge.net/DTD/sodipodi-0.dtd"
   xmlns:inkscape="http://www.inkscape.org/namespaces/inkscape"
   version="1.1"
   id="Layer_1"
   x="0px"
   y="0px"
   width="512px"
   height="512px"
   viewBox="0 0 512 512"
   enable-background="new 0 0 512 512"
   xml:space="preserve"
   inkscape:version="0.91 r13725"
   sodipodi:docname="weather-icon.svg"><metadata
     id="metadata80"><rdf:RDF><cc:Work
         rdf:about=""><dc:format>image/svg+xml</dc:format><dc:type
           rdf:resource="http://purl.org/dc/dcmitype/StillImage" /></cc:Work></rdf:RDF></metadata><defs
     id="defs78" /><sodipodi:namedview
     pagecolor="#ffffff"
     bordercolor="#666666"
     borderopacity="1"
     objecttolerance="10"
     gridtolerance="10"
     guidetolerance="10"
     inkscape:pageopacity="0"
     inkscape:pageshadow="2"
     inkscape:window-width="1920"
     inkscape:window-height="1017"
     id="namedview76"
     showgrid="false"
     inkscape:zoom="0.65186406"
     inkscape:cx="-209.03661"
     inkscape:cy="295.53473"
     inkscape:window-x="1912"
     inkscape:window-y="-8"
     inkscape:window-maximized="1"
     inkscape:current-layer="Layer_1" /><g
     id="g70"
     transform="translate(1.5340575,-4.626175e-6)"><g
       id="g72"><path
         d="m 208,64 c 8.833,0 16,-7.167 16,-16 l 0,-32 C 224,7.167 216.833,0 208,0 199.167,0 192,7.167 192,16 l 0,32 c 0,8.833 7.167,16 16,16 z m 124.438,42.167 22.625,-22.625 c 6.249,-6.25 6.249,-16.375 0,-22.625 -6.25,-6.25 -16.375,-6.25 -22.625,0 l -22.625,22.625 c -6.25,6.25 -6.25,16.375 0,22.625 6.249,6.25 16.375,6.25 22.625,0 z M 16,224 l 32,0 c 8.833,0 16,-7.167 16,-16 0,-8.833 -7.167,-16 -16,-16 l -32,0 c -8.833,0 -16,7.167 -16,16 0,8.833 7.167,16 16,16 z m 336,-16 c 0,8.833 7.167,16 16,16 l 32,0 c 8.833,0 16,-7.167 16,-16 0,-8.833 -7.167,-16 -16,-16 l -32,0 c -8.833,0 -16,7.167 -16,16 z M 83.541,106.167 c 6.251,6.25 16.376,6.25 22.625,0 6.251,-6.25 6.251,-16.375 0,-22.625 L 83.541,60.917 c -6.25,-6.25 -16.374,-6.25 -22.625,0 -6.25,6.25 -6.25,16.375 0,22.625 l 22.625,22.625 z M 400,256 c -5.312,0 -10.562,0.375 -15.792,1.125 C 367.437,234.25 345.084,216.792 319.75,205.625 318.459,145 268.938,96 208,96 146.25,96 96,146.25 96,208 c 0,17.438 4.334,33.75 11.5,48.438 C 47.875,258.875 0,307.812 0,368 c 0,61.75 50.25,112 112,112 13.688,0 27.084,-2.5 39.709,-7.333 C 180.666,497.917 217.5,512 256,512 294.542,512 331.333,497.917 360.291,472.667 372.916,477.5 386.312,480 400,480 461.75,480 512,429.75 512,368 512,306.25 461.75,256 400,256 Z M 208,128 c 39.812,0 72.562,29.167 78.708,67.25 C 276.687,193.25 266.459,192 256,192 210.062,192 167.5,211.812 137.625,245.25 131.688,234.083 128,221.542 128,208 c 0,-44.188 35.812,-80 80,-80 z m 192,320 c -17.125,0 -32.916,-5.5 -45.938,-14.667 C 330.584,461.625 295.624,480 256,480 216.375,480 181.416,461.625 157.938,433.333 144.938,442.5 129.125,448 112,448 67.812,448 32,412.188 32,368 c 0,-44.188 35.812,-80 80,-80 7.75,0 15.062,1.458 22.125,3.541 2.812,0.792 5.667,1.417 8.312,2.521 4.375,-8.562 9.875,-16.396 15.979,-23.75 C 181.792,242.188 216.562,224 256,224 c 10.125,0 19.834,1.458 29.25,3.709 10.562,2.499 20.542,6.291 29.834,11.291 23.291,12.375 42.416,31.542 54.457,55.063 C 378.938,290.188 389.209,288 400,288 c 44.188,0 80,35.812 80,80 0,44.188 -35.812,80 -80,80 z"
         id="path74"
         inkscape:connector-curvature="0"
         style="fill:#1d1d1b" /></g></g><path
     style="fill:#000000;fill-opacity:1;stroke:none;stroke-opacity:0"
     d="m 241.97767,510.36682 c -28.5985,-2.98267 -53.0987,-12.42895 -77.2861,-29.79834 l -12.08846,-8.68092 -6.751,2.30029 c -25.28285,8.61473 -56.956033,5.87376 -82.627167,-7.15051 C 26.444174,448.37661 2.6122758,409.634 2.6906029,368.62896 2.727175,349.48353 5.9285315,335.78027 14.350633,318.71875 30.425435,286.15436 64.642516,262.01211 100.46589,257.95915 l 9.39003,-1.06235 -3.1615,-7.86657 c -10.657029,-26.5172 -11.061708,-52.56049 -1.23511,-79.48601 22.35584,-61.25646 95.27038,-90.417149 153.09517,-61.22729 33.85005,17.08745 57.71969,51.18975 61.07131,87.25198 l 1.0037,10.79937 6.29905,2.82411 c 13.2745,5.95146 29.90654,18.30674 44.2934,32.90378 l 14.95665,15.17515 15.09569,0 c 52.00614,0 96.76478,35.22173 108.54645,85.41804 3.45885,14.73656 3.11584,38.12472 -0.77859,53.08741 -7.92894,30.46365 -29.41374,57.13459 -56.90188,70.63722 -19.40127,9.53023 -30.7622,12.29017 -50.62013,12.29731 -11.85772,0.005 -19.22997,-0.86985 -27.94156,-3.31293 l -11.83391,-3.31873 -10.19309,7.71512 c -30.38357,22.99726 -71.69279,34.52287 -109.5739,30.57206 z m 46.84384,-33.73866 c 21.79708,-5.57475 41.81344,-17.06001 58.63051,-33.6418 l 8.0614,-7.94862 9.58031,4.70447 c 9.93869,4.88045 27.11184,9.23361 36.4264,9.23361 17.70765,0 40.70231,-9.11749 54.27136,-21.51884 46.474,-42.47461 28.17947,-119.17817 -32.6894,-137.057 -10.55607,-3.1006 -32.47035,-3.18474 -42.4315,-0.16292 -4.14183,1.25646 -7.95024,2.29195 -8.4631,2.3011 -0.51289,0.009 -3.58822,-4.29796 -6.83408,-9.57129 -7.93747,-12.89548 -26.48347,-31.12195 -40.57519,-39.87615 -59.34054,-36.86406 -136.37977,-19.58283 -174.66096,39.17948 -3.68497,5.6565 -7.13661,10.27636 -7.67031,10.26634 -0.5337,-0.01 -4.76716,-1.03731 -9.4077,-2.28288 -17.75026,-4.76437 -41.359993,-2.05959 -57.350884,6.57025 -10.552857,5.69508 -25.175628,19.70753 -31.463016,30.14983 -18.614893,30.91622 -13.203854,72.20056 12.880954,98.27716 25.154308,25.1464 64.602566,30.43195 95.889146,12.8479 l 6.00717,-3.37621 11.37339,10.80361 c 31.88235,30.28512 76.15605,41.91267 118.4255,31.10196 z M 145.41433,239.51836 c 21.53644,-22.32606 58.01785,-40.6048 90.31165,-45.24998 12.24479,-1.76131 39.54493,-1.19181 49.46054,1.03179 l 4.09027,0.91725 -1.43654,-6.67406 c -4.51289,-20.96642 -22.2996,-43.63651 -41.7492,-53.21151 -10.45059,-5.14481 -26.90122,-9.40254 -36.32869,-9.40254 -9.27505,0 -26.47138,4.34516 -36.30358,9.17315 -30.70769,15.07869 -49.45669,51.44895 -43.48344,84.35137 1.83347,10.0993 7.19397,24.545 9.10814,24.545 0.57432,0 3.4232,-2.46621 6.33085,-5.48047 z"
     id="path4801"
     inkscape:connector-curvature="0" /></svg>